<svg xmlns="http://www.w3.org/2000/svg" xmlns:xlink="http://www.w3.org/1999/xlink" width="391.958" height="200.159" viewBox="0 0 391.958 200.159">
  <defs>
    <clipPath id="clip-path">
      <path id="Path_3" data-name="Path 3" d="M164.315,620.035l-19.4,158.146h27.267l19.4-158.146Z" transform="translate(-144.914 -620.035)" fill="#fff"/>
    </clipPath>
    <clipPath id="clip-path-2">
      <path id="Path_4" data-name="Path 4" d="M279.691,698.261q2.833-12.794,10.435-19.715t16.2-6.922q4.512,0,6.974,1.94a6.378,6.378,0,0,1,2.465,5.3q0,14.368-35.867,19.611Zm8.861-47.034a48.6,48.6,0,0,0-15.73,9.438,60.69,60.69,0,0,0-11.432,14.053,65.633,65.633,0,0,0-7.182,17.567A80.1,80.1,0,0,0,251.8,712q0,20.765,11.536,32.459T295,756.15q14.579,0,24.856-5.142t19.4-15.834l-20.869-13.634a41.383,41.383,0,0,1-6.869,6.292,25.481,25.481,0,0,1-7.078,3.566,26.1,26.1,0,0,1-7.866,1.153,18.516,18.516,0,0,1-7.184-1.416,17.167,17.167,0,0,1-6.189-4.508,18.713,18.713,0,0,1-4.037-7.6l.315-.209q8.39-1.151,15.941-2.884a145.641,145.641,0,0,0,14.735-4.194,67.949,67.949,0,0,0,12.95-5.925,57.744,57.744,0,0,0,10.173-7.656,29.922,29.922,0,0,0,6.817-9.647,28.475,28.475,0,0,0,2.411-11.641,27.246,27.246,0,0,0-2.884-12.637,25.073,25.073,0,0,0-7.814-9.122,38.418,38.418,0,0,0-11.009-5.4,42.932,42.932,0,0,0-12.794-1.891,54.861,54.861,0,0,0-19.455,3.41" transform="translate(-251.795 -647.816)" fill="#fff"/>
    </clipPath>
    <clipPath id="clip-path-3">
      <path id="Path_5" data-name="Path 5" d="M123.6,729.668a14.643,14.643,0,0,1-5.034-6.765,28.026,28.026,0,0,1-1.729-10.277,57.046,57.046,0,0,1,1.835-14.264,54.082,54.082,0,0,1,5.086-12.95,28.628,28.628,0,0,1,8.39-9.491,18.9,18.9,0,0,1,11.221-3.67,28.357,28.357,0,0,1,11.274,2.411,30.224,30.224,0,0,1,9.8,6.711l-.525,4.194a91.416,91.416,0,0,1-5.034,19.559,58.442,58.442,0,0,1-7.916,14.733,37.9,37.9,0,0,1-9.491,8.969,18.493,18.493,0,0,1-9.964,3.2,13.272,13.272,0,0,1-7.918-2.358m-4.037-76.555a51.2,51.2,0,0,0-16.151,14.366A71.01,71.01,0,0,0,93.036,688.4a82.4,82.4,0,0,0-3.775,24.96,60.549,60.549,0,0,0,2.2,16.779,43.265,43.265,0,0,0,6.45,13.528,28.993,28.993,0,0,0,11.063,9.176,35.129,35.129,0,0,0,15.521,3.3,31.5,31.5,0,0,0,17.724-5.664,51.306,51.306,0,0,0,14.892-15.941h.419l-2.517,19.822h27.266l12.9-104.872H167.915l-.945,8.181h-.419q-9.647-9.964-26.637-9.964a40.66,40.66,0,0,0-20.345,5.4" transform="translate(-89.261 -647.71)" fill="#fff"/>
    </clipPath>
    <clipPath id="clip-path-4">
      <path id="Path_6" data-name="Path 6" d="M288.478,634.089l-3.985,31.881H246.345l-5.768,46.773a51.844,51.844,0,0,1-11.849,25.012,38.541,38.541,0,0,1-8.861,7.445,17.284,17.284,0,0,1-8.757,2.778q-6.5,0-8.6-4.98t-.524-17.567l7.132-59.462H181.955l-6.8,55.942v0l-1.066,8.763c-.449,3.638-1.3,11.024-1.3,11.024s-4.207,33.369,34.88,33.369a41.023,41.023,0,0,0,18.175-4.124L218.18,766.3l22.76-7.955-1.173,25.509-7.056-7.093c-5.994,7.59-16.217,14.64-33.521,14.64a44.827,44.827,0,0,1-21.268-4.847l8.722-4.413-22.921-9.521-1.394,26.009,6.548-5.673.007-.005c8.728,14.045,25.6,19.9,40.327,19.9,28.869,0,41.381-19.535,43.583-23.45a69.828,69.828,0,0,0,5.768-14.054,111.528,111.528,0,0,0,3.723-18.037l5.039-41.024-.009.011,3.4-27.677h10.839l-6.292,52.122q-1.885,15.413,4.458,23.648t19.453,8.233a52.811,52.811,0,0,0,27.268-7.343l-4.194-22.441q-7.971,4.406-13.109,4.4-7.342,0-5.979-10.8l5.77-47.82h24.015l2.726-22.653H311.654l4.615-37.334Z" transform="translate(-162.329 -628.636)" fill="#fff"/>
    </clipPath>
  </defs>
  <g id="Splash_Logo" transform="translate(-89.261 -620.035)">
    <g id="Group_2" data-name="Group 2" transform="translate(192.41 620.035)">
      <g id="Group_1" data-name="Group 1" clip-path="url(#clip-path)">
        <rect id="Rectangle_2" data-name="Rectangle 2" width="73.353" height="163.838" transform="translate(-26.976 4.744) rotate(-9.974)" fill="#fff"/>
      </g>
    </g>
    <g id="Group_4" data-name="Group 4" transform="translate(390.505 671.525)">
      <g id="Group_3" data-name="Group 3" clip-path="url(#clip-path-2)">
        <rect id="Rectangle_3" data-name="Rectangle 3" width="108.106" height="122.407" transform="translate(-18.479 3.25) rotate(-9.974)" fill="#fff"/>
      </g>
    </g>
    <g id="Group_6" data-name="Group 6" transform="translate(89.261 671.329)">
      <g id="Group_5" data-name="Group 5" clip-path="url(#clip-path-3)">
        <rect id="Rectangle_4" data-name="Rectangle 4" width="123.1" height="125.144" transform="translate(-18.498 3.253) rotate(-9.974)" fill="#fff"/>
      </g>
    </g>
    <g id="Group_8" data-name="Group 8" transform="translate(224.687 635.976)">
      <g id="Group_7" data-name="Group 7" clip-path="url(#clip-path-4)">
        <rect id="Rectangle_5" data-name="Rectangle 5" width="202.627" height="211.456" transform="translate(-31.424 5.525) rotate(-9.974)" fill="#fff"/>
      </g>
    </g>
  </g>
</svg>
