<svg xmlns="http://www.w3.org/2000/svg" xmlns:xlink="http://www.w3.org/1999/xlink" width="100.516" height="51.33" viewBox="0 0 100.516 51.33">
  <defs>
    <clipPath id="clip-path">
      <path id="Path_3" data-name="Path 3" d="M149.889,620.035l-4.975,40.556h6.992l4.975-40.556Z" transform="translate(-144.914 -620.035)" fill="#364362"/>
    </clipPath>
    <clipPath id="clip-path-2">
      <path id="Path_4" data-name="Path 4" d="M258.949,660.752a9.345,9.345,0,0,1,2.676-5.056,6.093,6.093,0,0,1,4.155-1.775,2.829,2.829,0,0,1,1.789.5,1.636,1.636,0,0,1,.632,1.358q0,3.684-9.2,5.029Zm2.272-12.062a12.463,12.463,0,0,0-4.034,2.42,15.565,15.565,0,0,0-2.932,3.6,16.831,16.831,0,0,0-1.842,4.5,20.541,20.541,0,0,0-.619,5.056q0,5.325,2.958,8.324a10.892,10.892,0,0,0,8.122,3,14.126,14.126,0,0,0,6.374-1.319,16.078,16.078,0,0,0,4.975-4.06l-5.352-3.5a10.612,10.612,0,0,1-1.761,1.614,6.533,6.533,0,0,1-1.815.914,6.694,6.694,0,0,1-2.017.3,4.749,4.749,0,0,1-1.842-.363,4.4,4.4,0,0,1-1.587-1.156,4.8,4.8,0,0,1-1.035-1.95l.081-.054q2.152-.3,4.088-.74a37.359,37.359,0,0,0,3.779-1.076,17.423,17.423,0,0,0,3.321-1.52,14.808,14.808,0,0,0,2.609-1.963,7.674,7.674,0,0,0,1.748-2.474,7.3,7.3,0,0,0,.618-2.985,6.987,6.987,0,0,0-.74-3.241,6.43,6.43,0,0,0-2-2.339,9.854,9.854,0,0,0-2.823-1.385,11.009,11.009,0,0,0-3.281-.485,14.068,14.068,0,0,0-4.989.875" transform="translate(-251.795 -647.816)" fill="#364362"/>
    </clipPath>
    <clipPath id="clip-path-3">
      <path id="Path_5" data-name="Path 5" d="M98.068,668.728a3.756,3.756,0,0,1-1.291-1.735,7.187,7.187,0,0,1-.443-2.636A14.63,14.63,0,0,1,96.8,660.7a13.87,13.87,0,0,1,1.3-3.321,7.342,7.342,0,0,1,2.152-2.434,4.846,4.846,0,0,1,2.877-.941,7.273,7.273,0,0,1,2.891.618,7.752,7.752,0,0,1,2.514,1.721l-.135,1.076a23.444,23.444,0,0,1-1.291,5.016,14.986,14.986,0,0,1-2.03,3.778,9.719,9.719,0,0,1-2.434,2.3,4.742,4.742,0,0,1-2.555.82,3.4,3.4,0,0,1-2.03-.6M97.033,649.1a13.13,13.13,0,0,0-4.142,3.684,18.21,18.21,0,0,0-2.662,5.365,21.13,21.13,0,0,0-.968,6.4,15.528,15.528,0,0,0,.565,4.3,11.094,11.094,0,0,0,1.654,3.469,7.435,7.435,0,0,0,2.837,2.353,9.009,9.009,0,0,0,3.98.847,8.079,8.079,0,0,0,4.545-1.453,13.156,13.156,0,0,0,3.819-4.088h.107l-.645,5.083h6.992l3.308-26.894h-6.992l-.242,2.1h-.107a9.065,9.065,0,0,0-6.831-2.555,10.427,10.427,0,0,0-5.217,1.385" transform="translate(-89.261 -647.71)" fill="#364362"/>
    </clipPath>
    <clipPath id="clip-path-4">
      <path id="Path_6" data-name="Path 6" d="M194.679,630.034l-1.022,8.176h-9.783L182.4,650.2a13.294,13.294,0,0,1-3.039,6.414,9.885,9.885,0,0,1-2.272,1.909,4.433,4.433,0,0,1-2.246.712,2.145,2.145,0,0,1-2.205-1.277,9.836,9.836,0,0,1-.135-4.5l1.829-15.249h-6.966l-1.744,14.346h0l-.273,2.247c-.115.933-.335,2.827-.335,2.827s-1.079,8.557,8.945,8.557a10.52,10.52,0,0,0,4.661-1.057l-1.964-1.19,5.837-2.04-.3,6.542-1.809-1.819c-1.537,1.946-4.159,3.754-8.6,3.754a11.5,11.5,0,0,1-5.454-1.243L168.564,668l-5.878-2.442-.357,6.67,1.679-1.455h0c2.238,3.6,6.564,5.1,10.342,5.1a12.567,12.567,0,0,0,11.177-6.013,17.91,17.91,0,0,0,1.479-3.6,28.6,28.6,0,0,0,.955-4.626l1.292-10.52,0,0,.872-7.1h2.78l-1.614,13.366q-.483,3.953,1.143,6.064a5.9,5.9,0,0,0,4.989,2.111,13.543,13.543,0,0,0,6.993-1.883l-1.076-5.755a7.434,7.434,0,0,1-3.362,1.129q-1.883,0-1.533-2.77l1.48-12.263h6.158l.7-5.809h-6.159l1.184-9.574Z" transform="translate(-162.329 -628.636)" fill="#364362"/>
    </clipPath>
  </defs>
  <g id="Group_17" data-name="Group 17" transform="translate(-89.261 -620.035)">
    <g id="Group_2" data-name="Group 2" transform="translate(115.713 620.035)">
      <g id="Group_1" data-name="Group 1" transform="translate(0)" clip-path="url(#clip-path)">
        <rect id="Rectangle_2" data-name="Rectangle 2" width="18.811" height="42.016" transform="translate(-6.918 1.217) rotate(-9.974)" fill="#364362"/>
      </g>
    </g>
    <g id="Group_4" data-name="Group 4" transform="translate(166.514 633.239)">
      <g id="Group_3" data-name="Group 3" clip-path="url(#clip-path-2)">
        <rect id="Rectangle_3" data-name="Rectangle 3" width="27.723" height="31.391" transform="translate(-4.739 0.834) rotate(-9.974)" fill="#364362"/>
      </g>
    </g>
    <g id="Group_6" data-name="Group 6" transform="translate(89.261 633.189)">
      <g id="Group_5" data-name="Group 5" clip-path="url(#clip-path-3)">
        <rect id="Rectangle_4" data-name="Rectangle 4" width="31.568" height="32.093" transform="translate(-4.744 0.834) rotate(-9.974)" fill="#364362"/>
      </g>
    </g>
    <g id="Group_8" data-name="Group 8" transform="translate(123.99 624.123)">
      <g id="Group_7" data-name="Group 7" transform="translate(0)" clip-path="url(#clip-path-4)">
        <rect id="Rectangle_5" data-name="Rectangle 5" width="51.963" height="54.227" transform="translate(-8.058 1.417) rotate(-9.974)" fill="#364362"/>
      </g>
    </g>
  </g>
</svg>
